<svg xmlns="http://www.w3.org/2000/svg" viewBox="123.72 122.23 297.62 425.23" xmlns:v="https://vecta.io/nano"><clipPath id="A"><path d="M0 0h544.252v668.976H0z"/></clipPath><g clip-path="url(#A)"><g fill="#004b8d"><path d="M286.223 492.488c0 19.041-30.466 34.449-68.033 34.449s-68.049-15.408-68.049-34.449 30.481-34.465 68.049-34.465 68.033 15.422 68.033 34.465m-55.259-346.879v-13.458l-25.422-9.903v315.319c-46.719 4.335-81.805 27.522-81.805 54.888 0 30.383 42.305 54.99 94.52 54.99 52.203 0 94.511-24.607 94.511-54.99 0-27.366-35.385-50.524-81.804-54.888V267.486h190.357V145.609z" fill-rule="evenodd"/><path d="M165.241 397.668h-2.678v-4.738h2.995c1.67 0 3.545.329 3.545 2.424 0 2.255-2.168 2.314-3.862 2.314m8.594-2.28c0-4.839-3.56-6.304-7.803-6.304h-8.047v20.733h4.578v-8.296h2.268l4.324 8.296h5.486l-5.274-8.751c2.937-.527 4.468-2.784 4.468-5.678m-8.166 20.737c-9.017 0-16.363-7.346-16.363-16.345a16.38 16.38 0 0 1 16.363-16.35c9.006 0 16.318 7.329 16.318 16.35 0 8.999-7.312 16.345-16.318 16.345m0-36.716a20.38 20.38 0 0 0-20.361 20.371c0 11.223 9.125 20.362 20.361 20.362 11.205 0 20.346-9.139 20.346-20.362 0-11.245-9.141-20.371-20.346-20.371"/></g><path d="M313.758 263.49h103.557v-41.426H313.758zm-82.795 0h51.756v-41.426h-51.756zm82.795-72.478h103.557v-41.4H313.758zm-82.795 0h51.756v-41.4h-51.756z" fill="#fff" fill-rule="evenodd"/></g></svg>