<?xml version="1.0" encoding="UTF-8"?><svg xmlns="http://www.w3.org/2000/svg" viewBox="0 0 118.58 119.83"><defs><style>.d{fill:none;stroke:#00a1c7;stroke-linecap:round;stroke-miterlimit:10;stroke-width:1.5px;}.e{fill:#00a1c7;}</style></defs><g id="a"/><g id="b"><g id="c"><g><g><path class="e" d="M2.83,46.24c-2.13-.7-3.05-2.79-2.39-4.82,.52-1.58,1.64-2.19,2.67-2.39l.21,1.47c-.66,.11-1.31,.58-1.56,1.35-.4,1.2,.27,2.44,1.58,2.87,1.31,.43,2.58-.16,2.97-1.37,.25-.77,.02-1.54-.45-2.01l1.03-1.07c.7,.78,1.25,1.93,.73,3.51-.67,2.03-2.65,3.16-4.78,2.46Z"/><path class="e" d="M5.32,30.61c1.09-1.92,3.26-2.53,5.17-1.44s2.48,3.26,1.38,5.18c-1.09,1.91-3.25,2.52-5.16,1.43-1.91-1.09-2.48-3.26-1.39-5.17Zm1.2,.68c-.67,1.17-.2,2.43,.99,3.1,1.18,.67,2.51,.44,3.17-.73,.67-1.17,.2-2.44-.98-3.11-1.19-.68-2.51-.43-3.18,.74Z"/><path class="e" d="M16.03,27.72l-5.48-4.8,1.89-2.16c1.5-1.71,3.64-1.95,5.29-.5,1.65,1.45,1.69,3.59,.19,5.3l-1.89,2.16Zm0-2.07l.87-.99c.95-1.08,.73-2.4-.2-3.21-.97-.85-2.24-.91-3.22,.21l-.87,1,3.43,3Z"/><path class="e" d="M23.5,19.91l-4.51-5.73,4.05-3.19,.83,1.05-2.83,2.23,.98,1.25,2.77-2.19,.83,1.05-2.78,2.19,1.05,1.33,2.83-2.23,.83,1.06-4.05,3.19Z"/><path class="e" d="M36.1,11.78l-1.75-4.03,3.04-1.32,.35,.81-2.08,.9,.33,.76,2.03-.88,.36,.82-2.03,.88,.71,1.63-.97,.42Z"/><path class="e" d="M43.66,8.93l-1.29-1.19-.63,.2,.46,1.45-1.01,.32-1.32-4.2,2.12-.67c.93-.29,1.67,.15,1.9,.91,.24,.77-.11,1.35-.56,1.6l1.49,1.22-1.15,.36Zm-1.54-3.2l-.98,.31,.33,1.04,.99-.31c.38-.12,.51-.41,.42-.71-.09-.29-.37-.45-.74-.34Z"/><path class="e" d="M48.15,3.22c1.37-.26,2.5,.52,2.75,1.81,.25,1.3-.52,2.44-1.89,2.7-1.38,.26-2.5-.51-2.75-1.81-.25-1.3,.51-2.43,1.89-2.69Zm.17,.91c-.77,.15-1.16,.82-1.01,1.58,.14,.75,.75,1.25,1.52,1.1,.76-.14,1.15-.83,1.01-1.58-.14-.76-.76-1.25-1.52-1.1Z"/><path class="e" d="M57.43,6.69l-.17-2.91-1.05,2.98-.49,.03-1.39-2.84,.17,2.91-1.05,.06-.26-4.39,1.41-.08,1.27,2.6,.95-2.73,1.42-.08,.26,4.39-1.05,.06Z"/><path class="e" d="M66.91,7.17l1.33-7.17,5.07,.94-.24,1.31-3.55-.66-.29,1.56,3.47,.65-.24,1.31-3.47-.65-.56,2.99-1.53-.28Z"/><path class="e" d="M75.93,9.29l2.33-6.91,1.47,.5-2.33,6.91-1.47-.5Z"/><path class="e" d="M86.03,13.68l-.81-5.95-2.27,4.34-1.38-.72,3.38-6.46,1.41,.74,.81,5.75,2.19-4.19,1.38,.72-3.38,6.46-1.33-.69Z"/><path class="e" d="M91,16.84l4.47-5.76,1.23,.95-3.64,4.68,2.44,1.89-.84,1.08-3.66-2.84Z"/><path class="e" d="M101.1,26.19l.62-1.18-2.19-2.41-1.24,.5-1.15-1.26,7.29-2.81,1.31,1.44-3.51,6.98-1.14-1.25Zm3-5.54l-3.29,1.35,1.62,1.79,1.67-3.14Z"/><path class="e" d="M106.94,34.69l2.41-5.5-4.2,2.52-.8-1.33,6.25-3.76,.82,1.37-2.31,5.33,4.05-2.43,.8,1.33-6.25,3.75-.77-1.28Z"/><path class="e" d="M109.58,39.93l6.87-2.45,.97,2.71c.77,2.15-.07,4.14-2.14,4.87-2.07,.74-3.96-.27-4.73-2.42l-.97-2.71Zm1.81,1l.44,1.25c.48,1.36,1.75,1.8,2.91,1.39,1.22-.43,1.89-1.51,1.39-2.92l-.44-1.25-4.3,1.53Z"/></g><path class="d" d="M31.38,112.71C13.14,102.81,.75,83.5,.75,61.28c0-3.52,.31-6.97,.91-10.33"/><path class="d" d="M87.2,112.71c18.24-9.89,30.63-29.21,30.63-51.42,0-3.52-.31-6.97-.91-10.33"/><g><path class="e" d="M35.67,117.6c0-1.05,.5-2.15,1.67-2.15s1.67,1.1,1.67,2.15-.5,2.16-1.67,2.16-1.67-1.11-1.67-2.16Zm2.6,0c0-.79-.24-1.5-.93-1.5s-.93,.71-.93,1.5,.24,1.51,.93,1.51,.93-.71,.93-1.51Z"/><path class="e" d="M40.48,28.66c0-1.05,.5-2.15,1.67-2.15s1.67,1.1,1.67,2.15-.5,2.16-1.67,2.16-1.67-1.11-1.67-2.16Zm2.6,0c0-.79-.24-1.5-.93-1.5s-.93,.71-.93,1.5,.24,1.51,.93,1.51,.93-.71,.93-1.51Z"/><path class="e" d="M45.99,30.74v-3.22l-.68,.71-.43-.44,1.2-1.21h.64v4.17h-.73Z"/><g><path class="e" d="M61.93,22.28c0-1.05,.5-2.15,1.67-2.15s1.67,1.1,1.67,2.15-.5,2.16-1.67,2.16-1.67-1.11-1.67-2.16Zm2.6,0c0-.79-.24-1.5-.93-1.5s-.93,.71-.93,1.5,.24,1.51,.93,1.51,.93-.71,.93-1.51Z"/><path class="e" d="M67.45,24.37v-3.22l-.68,.71-.43-.44,1.2-1.21h.64v4.17h-.73Z"/><path class="e" d="M69.59,22.28c0-1.05,.5-2.15,1.67-2.15s1.67,1.1,1.67,2.15-.5,2.16-1.67,2.16-1.67-1.11-1.67-2.16Zm2.6,0c0-.79-.24-1.5-.93-1.5s-.93,.71-.93,1.5,.24,1.51,.93,1.51,.93-.71,.93-1.51Z"/><path class="e" d="M75.1,24.37v-3.22l-.68,.71-.43-.44,1.2-1.21h.64v4.17h-.73Z"/></g><g><path class="e" d="M60.2,66.79c0-1.05,.5-2.15,1.67-2.15s1.67,1.1,1.67,2.15-.5,2.16-1.67,2.16-1.67-1.11-1.67-2.16Zm2.6,0c0-.79-.24-1.5-.93-1.5s-.93,.71-.93,1.5,.24,1.51,.93,1.51,.93-.71,.93-1.51Z"/><path class="e" d="M65.72,68.88v-3.22l-.68,.71-.43-.44,1.2-1.21h.64v4.17h-.73Z"/><path class="e" d="M67.86,66.79c0-1.05,.5-2.15,1.67-2.15s1.67,1.1,1.67,2.15-.5,2.16-1.67,2.16-1.67-1.11-1.67-2.16Zm2.6,0c0-.79-.24-1.5-.93-1.5s-.93,.71-.93,1.5,.24,1.51,.93,1.51,.93-.71,.93-1.51Z"/><path class="e" d="M73.37,68.88v-3.22l-.68,.71-.43-.44,1.2-1.21h.64v4.17h-.73Z"/><path class="e" d="M75.52,66.79c0-1.05,.5-2.15,1.67-2.15s1.67,1.1,1.67,2.15-.5,2.16-1.67,2.16-1.67-1.11-1.67-2.16Zm2.6,0c0-.79-.24-1.5-.93-1.5s-.93,.71-.93,1.5,.24,1.51,.93,1.51,.93-.71,.93-1.51Z"/><path class="e" d="M81.03,68.88v-3.22l-.68,.71-.43-.44,1.2-1.21h.64v4.17h-.73Z"/></g><g><path class="e" d="M60.45,30.68v-3.22l-.68,.71-.43-.44,1.2-1.21h.64v4.17h-.73Z"/><path class="e" d="M62.6,28.6c0-1.05,.5-2.15,1.67-2.15s1.67,1.1,1.67,2.15-.5,2.16-1.67,2.16-1.67-1.11-1.67-2.16Zm2.6,0c0-.79-.24-1.5-.93-1.5s-.93,.71-.93,1.5,.24,1.51,.93,1.51,.93-.71,.93-1.51Z"/><path class="e" d="M69.49,28.6c0-1.05,.5-2.15,1.67-2.15s1.67,1.1,1.67,2.15-.5,2.16-1.67,2.16-1.67-1.11-1.67-2.16Zm2.6,0c0-.79-.24-1.5-.93-1.5s-.93,.71-.93,1.5,.24,1.51,.93,1.51,.93-.71,.93-1.51Z"/></g><g><path class="e" d="M56.56,75.24v-3.22l-.68,.71-.43-.44,1.2-1.21h.64v4.17h-.73Z"/><path class="e" d="M58.71,73.15c0-1.05,.5-2.15,1.67-2.15s1.67,1.1,1.67,2.15-.5,2.16-1.67,2.16-1.67-1.11-1.67-2.16Zm2.6,0c0-.79-.24-1.5-.93-1.5s-.93,.71-.93,1.5,.24,1.51,.93,1.51,.93-.71,.93-1.51Z"/><path class="e" d="M65.6,73.15c0-1.05,.5-2.15,1.67-2.15s1.67,1.1,1.67,2.15-.5,2.16-1.67,2.16-1.67-1.11-1.67-2.16Zm2.6,0c0-.79-.24-1.5-.93-1.5s-.93,.71-.93,1.5,.24,1.51,.93,1.51,.93-.71,.93-1.51Z"/><path class="e" d="M71.11,75.24v-3.22l-.68,.71-.43-.44,1.2-1.21h.64v4.17h-.73Z"/><path class="e" d="M74.2,75.24v-3.22l-.68,.71-.43-.44,1.2-1.21h.64v4.17h-.73Z"/><path class="e" d="M76.35,73.15c0-1.05,.5-2.15,1.67-2.15s1.67,1.1,1.67,2.15-.5,2.16-1.67,2.16-1.67-1.11-1.67-2.16Zm2.6,0c0-.79-.24-1.5-.93-1.5s-.93,.71-.93,1.5,.24,1.51,.93,1.51,.93-.71,.93-1.51Z"/><path class="e" d="M81.86,75.24v-3.22l-.68,.71-.43-.44,1.2-1.21h.64v4.17h-.73Z"/></g><g><path class="e" d="M47.53,37.07v-3.22l-.68,.71-.43-.44,1.2-1.21h.64v4.17h-.73Z"/><path class="e" d="M50.62,37.07v-3.22l-.68,.71-.43-.44,1.2-1.21h.64v4.17h-.73Z"/><path class="e" d="M52.76,34.99c0-1.05,.5-2.15,1.67-2.15s1.67,1.1,1.67,2.15-.5,2.16-1.67,2.16-1.67-1.11-1.67-2.16Zm2.6,0c0-.79-.24-1.5-.93-1.5s-.93,.71-.93,1.5,.24,1.51,.93,1.51,.93-.71,.93-1.51Z"/><path class="e" d="M58.28,37.07v-3.22l-.68,.71-.43-.44,1.2-1.21h.64v4.17h-.73Z"/><path class="e" d="M60.42,34.99c0-1.05,.5-2.15,1.67-2.15s1.67,1.1,1.67,2.15-.5,2.16-1.67,2.16-1.67-1.11-1.67-2.16Zm2.6,0c0-.79-.24-1.5-.93-1.5s-.93,.71-.93,1.5,.24,1.51,.93,1.51,.93-.71,.93-1.51Z"/><path class="e" d="M64.99,34.99c0-1.05,.5-2.15,1.67-2.15s1.67,1.1,1.67,2.15-.5,2.16-1.67,2.16-1.67-1.11-1.67-2.16Zm2.6,0c0-.79-.24-1.5-.93-1.5s-.93,.71-.93,1.5,.24,1.51,.93,1.51,.93-.71,.93-1.51Z"/><path class="e" d="M70.5,37.07v-3.22l-.68,.71-.43-.44,1.2-1.21h.64v4.17h-.73Z"/></g><g><path class="e" d="M44.48,104.96c0-1.05,.5-2.15,1.67-2.15s1.67,1.1,1.67,2.15-.5,2.16-1.67,2.16-1.67-1.11-1.67-2.16Zm2.6,0c0-.79-.24-1.5-.93-1.5s-.93,.71-.93,1.5,.24,1.51,.93,1.51,.93-.71,.93-1.51Z"/><path class="e" d="M49.99,107.04v-3.22l-.68,.71-.43-.44,1.2-1.21h.64v4.17h-.73Z"/><path class="e" d="M52.13,104.96c0-1.05,.5-2.15,1.67-2.15s1.67,1.1,1.67,2.15-.5,2.16-1.67,2.16-1.67-1.11-1.67-2.16Zm2.6,0c0-.79-.24-1.5-.93-1.5s-.93,.71-.93,1.5,.24,1.51,.93,1.51,.93-.71,.93-1.51Z"/><path class="e" d="M56.7,104.96c0-1.05,.5-2.15,1.67-2.15s1.67,1.1,1.67,2.15-.5,2.16-1.67,2.16-1.67-1.11-1.67-2.16Zm2.6,0c0-.79-.24-1.5-.93-1.5s-.93,.71-.93,1.5,.24,1.51,.93,1.51,.93-.71,.93-1.51Z"/><path class="e" d="M62.21,107.04v-3.22l-.68,.71-.43-.44,1.2-1.21h.64v4.17h-.73Z"/><path class="e" d="M66.68,104.96c0-1.05,.5-2.15,1.67-2.15s1.67,1.1,1.67,2.15-.5,2.16-1.67,2.16-1.67-1.11-1.67-2.16Zm2.6,0c0-.79-.24-1.5-.93-1.5s-.93,.71-.93,1.5,.24,1.51,.93,1.51,.93-.71,.93-1.51Z"/><path class="e" d="M72.19,107.04v-3.22l-.68,.71-.43-.44,1.2-1.21h.64v4.17h-.73Z"/><path class="e" d="M75.28,107.04v-3.22l-.68,.71-.43-.44,1.2-1.21h.64v4.17h-.73Z"/><path class="e" d="M77.43,104.96c0-1.05,.5-2.15,1.67-2.15s1.67,1.1,1.67,2.15-.5,2.16-1.67,2.16-1.67-1.11-1.67-2.16Zm2.6,0c0-.79-.24-1.5-.93-1.5s-.93,.71-.93,1.5,.24,1.51,.93,1.51,.93-.71,.93-1.51Z"/><path class="e" d="M82.94,107.04v-3.22l-.68,.71-.43-.44,1.2-1.21h.64v4.17h-.73Z"/></g><g><path class="e" d="M51.11,79.54c0-1.05,.5-2.15,1.67-2.15s1.67,1.1,1.67,2.15-.5,2.16-1.67,2.16-1.67-1.11-1.67-2.16Zm2.6,0c0-.79-.24-1.5-.93-1.5s-.93,.71-.93,1.5,.24,1.51,.93,1.51,.93-.71,.93-1.51Z"/><path class="e" d="M55.68,79.54c0-1.05,.5-2.15,1.67-2.15s1.67,1.1,1.67,2.15-.5,2.16-1.67,2.16-1.67-1.11-1.67-2.16Zm2.6,0c0-.79-.24-1.5-.93-1.5s-.93,.71-.93,1.5,.24,1.51,.93,1.51,.93-.71,.93-1.51Z"/><path class="e" d="M61.19,81.62v-3.22l-.68,.71-.43-.44,1.2-1.21h.64v4.17h-.73Z"/><path class="e" d="M65.66,79.54c0-1.05,.5-2.15,1.67-2.15s1.67,1.1,1.67,2.15-.5,2.16-1.67,2.16-1.67-1.11-1.67-2.16Zm2.6,0c0-.79-.24-1.5-.93-1.5s-.93,.71-.93,1.5,.24,1.51,.93,1.51,.93-.71,.93-1.51Z"/><path class="e" d="M71.17,81.62v-3.22l-.68,.71-.43-.44,1.2-1.21h.64v4.17h-.73Z"/><path class="e" d="M74.26,81.62v-3.22l-.68,.71-.43-.44,1.2-1.21h.64v4.17h-.73Z"/><path class="e" d="M76.41,79.54c0-1.05,.5-2.15,1.67-2.15s1.67,1.1,1.67,2.15-.5,2.16-1.67,2.16-1.67-1.11-1.67-2.16Zm2.6,0c0-.79-.24-1.5-.93-1.5s-.93,.71-.93,1.5,.24,1.51,.93,1.51,.93-.71,.93-1.51Z"/><path class="e" d="M81.92,81.62v-3.22l-.68,.71-.43-.44,1.2-1.21h.64v4.17h-.73Z"/><path class="e" d="M85.01,81.62v-3.22l-.68,.71-.43-.44,1.2-1.21h.64v4.17h-.73Z"/></g><g><path class="e" d="M51.97,41.29c0-1.05,.5-2.15,1.67-2.15s1.67,1.1,1.67,2.15-.5,2.16-1.67,2.16-1.67-1.11-1.67-2.16Zm2.6,0c0-.79-.24-1.5-.93-1.5s-.93,.71-.93,1.5,.24,1.51,.93,1.51,.93-.71,.93-1.51Z"/><path class="e" d="M57.49,43.38v-3.22l-.68,.71-.43-.44,1.2-1.21h.64v4.17h-.73Z"/><path class="e" d="M60.58,43.38v-3.22l-.68,.71-.43-.44,1.2-1.21h.64v4.17h-.73Z"/><path class="e" d="M62.72,41.29c0-1.05,.5-2.15,1.67-2.15s1.67,1.1,1.67,2.15-.5,2.16-1.67,2.16-1.67-1.11-1.67-2.16Zm2.6,0c0-.79-.24-1.5-.93-1.5s-.93,.71-.93,1.5,.24,1.51,.93,1.51,.93-.71,.93-1.51Z"/><path class="e" d="M68.24,43.38v-3.22l-.68,.71-.43-.44,1.2-1.21h.64v4.17h-.73Z"/><path class="e" d="M71.33,43.38v-3.22l-.68,.71-.43-.44,1.2-1.21h.64v4.17h-.73Z"/><path class="e" d="M74.42,43.38v-3.22l-.68,.71-.43-.44,1.2-1.21h.64v4.17h-.73Z"/><path class="e" d="M76.56,41.29c0-1.05,.5-2.15,1.67-2.15s1.67,1.1,1.67,2.15-.5,2.16-1.67,2.16-1.67-1.11-1.67-2.16Zm2.6,0c0-.79-.24-1.5-.93-1.5s-.93,.71-.93,1.5,.24,1.51,.93,1.51,.93-.71,.93-1.51Z"/></g><g><path class="e" d="M43.19,113.41v-3.22l-.68,.71-.43-.44,1.2-1.21h.64v4.17h-.73Z"/><path class="e" d="M46.28,113.41v-3.22l-.68,.71-.43-.44,1.2-1.21h.64v4.17h-.73Z"/><path class="e" d="M48.43,111.33c0-1.05,.5-2.15,1.67-2.15s1.67,1.1,1.67,2.15-.5,2.16-1.67,2.16-1.67-1.11-1.67-2.16Zm2.6,0c0-.79-.24-1.5-.93-1.5s-.93,.71-.93,1.5,.24,1.51,.93,1.51,.93-.71,.93-1.51Z"/><path class="e" d="M55.32,111.33c0-1.05,.5-2.15,1.67-2.15s1.67,1.1,1.67,2.15-.5,2.16-1.67,2.16-1.67-1.11-1.67-2.16Zm2.6,0c0-.79-.24-1.5-.93-1.5s-.93,.71-.93,1.5,.24,1.51,.93,1.51,.93-.71,.93-1.51Z"/><path class="e" d="M60.83,113.41v-3.22l-.68,.71-.43-.44,1.2-1.21h.64v4.17h-.73Z"/><path class="e" d="M63.92,113.41v-3.22l-.68,.71-.43-.44,1.2-1.21h.64v4.17h-.73Z"/><path class="e" d="M66.07,111.33c0-1.05,.5-2.15,1.67-2.15s1.67,1.1,1.67,2.15-.5,2.16-1.67,2.16-1.67-1.11-1.67-2.16Zm2.6,0c0-.79-.24-1.5-.93-1.5s-.93,.71-.93,1.5,.24,1.51,.93,1.51,.93-.71,.93-1.51Z"/><path class="e" d="M70.63,111.33c0-1.05,.5-2.15,1.67-2.15s1.67,1.1,1.67,2.15-.5,2.16-1.67,2.16-1.67-1.11-1.67-2.16Zm2.6,0c0-.79-.24-1.5-.93-1.5s-.93,.71-.93,1.5,.24,1.51,.93,1.51,.93-.71,.93-1.51Z"/><path class="e" d="M75.2,111.33c0-1.05,.5-2.15,1.67-2.15s1.67,1.1,1.67,2.15-.5,2.16-1.67,2.16-1.67-1.11-1.67-2.16Zm2.6,0c0-.79-.24-1.5-.93-1.5s-.93,.71-.93,1.5,.24,1.51,.93,1.51,.93-.71,.93-1.51Z"/></g><g><path class="e" d="M51.22,47.74c0-1.05,.5-2.15,1.67-2.15s1.67,1.1,1.67,2.15-.5,2.16-1.67,2.16-1.67-1.11-1.67-2.16Zm2.6,0c0-.79-.24-1.5-.93-1.5s-.93,.71-.93,1.5,.24,1.51,.93,1.51,.93-.71,.93-1.51Z"/><path class="e" d="M56.74,49.82v-3.22l-.68,.71-.43-.44,1.2-1.21h.64v4.17h-.73Z"/><path class="e" d="M59.83,49.82v-3.22l-.68,.71-.43-.44,1.2-1.21h.64v4.17h-.73Z"/><path class="e" d="M61.97,47.74c0-1.05,.5-2.15,1.67-2.15s1.67,1.1,1.67,2.15-.5,2.16-1.67,2.16-1.67-1.11-1.67-2.16Zm2.6,0c0-.79-.24-1.5-.93-1.5s-.93,.71-.93,1.5,.24,1.51,.93,1.51,.93-.71,.93-1.51Z"/><path class="e" d="M66.54,47.74c0-1.05,.5-2.15,1.67-2.15s1.67,1.1,1.67,2.15-.5,2.16-1.67,2.16-1.67-1.11-1.67-2.16Zm2.6,0c0-.79-.24-1.5-.93-1.5s-.93,.71-.93,1.5,.24,1.51,.93,1.51,.93-.71,.93-1.51Z"/><path class="e" d="M71.11,47.74c0-1.05,.5-2.15,1.67-2.15s1.67,1.1,1.67,2.15-.5,2.16-1.67,2.16-1.67-1.11-1.67-2.16Zm2.6,0c0-.79-.24-1.5-.93-1.5s-.93,.71-.93,1.5,.24,1.51,.93,1.51,.93-.71,.93-1.51Z"/><path class="e" d="M76.62,49.82v-3.22l-.68,.71-.43-.44,1.2-1.21h.64v4.17h-.73Z"/><path class="e" d="M79.71,49.82v-3.22l-.68,.71-.43-.44,1.2-1.21h.64v4.17h-.73Z"/></g><g><path class="e" d="M44.55,87.98v-3.22l-.68,.71-.43-.44,1.2-1.21h.64v4.17h-.73Z"/><path class="e" d="M46.7,85.9c0-1.05,.5-2.15,1.67-2.15s1.67,1.1,1.67,2.15-.5,2.16-1.67,2.16-1.67-1.11-1.67-2.16Zm2.6,0c0-.79-.24-1.5-.93-1.5s-.93,.71-.93,1.5,.24,1.51,.93,1.51,.93-.71,.93-1.51Z"/><path class="e" d="M53.59,85.9c0-1.05,.5-2.15,1.67-2.15s1.67,1.1,1.67,2.15-.5,2.16-1.67,2.16-1.67-1.11-1.67-2.16Zm2.6,0c0-.79-.24-1.5-.93-1.5s-.93,.71-.93,1.5,.24,1.51,.93,1.51,.93-.71,.93-1.51Z"/><path class="e" d="M59.1,87.98v-3.22l-.68,.71-.43-.44,1.2-1.21h.64v4.17h-.73Z"/><path class="e" d="M62.19,87.98v-3.22l-.68,.71-.43-.44,1.2-1.21h.64v4.17h-.73Z"/><path class="e" d="M64.33,85.9c0-1.05,.5-2.15,1.67-2.15s1.67,1.1,1.67,2.15-.5,2.16-1.67,2.16-1.67-1.11-1.67-2.16Zm2.6,0c0-.79-.24-1.5-.93-1.5s-.93,.71-.93,1.5,.24,1.51,.93,1.51,.93-.71,.93-1.51Z"/><path class="e" d="M68.9,85.9c0-1.05,.5-2.15,1.67-2.15s1.67,1.1,1.67,2.15-.5,2.16-1.67,2.16-1.67-1.11-1.67-2.16Zm2.6,0c0-.79-.24-1.5-.93-1.5s-.93,.71-.93,1.5,.24,1.51,.93,1.51,.93-.71,.93-1.51Z"/><path class="e" d="M73.47,85.9c0-1.05,.5-2.15,1.67-2.15s1.67,1.1,1.67,2.15-.5,2.16-1.67,2.16-1.67-1.11-1.67-2.16Zm2.6,0c0-.79-.24-1.5-.93-1.5s-.93,.71-.93,1.5,.24,1.51,.93,1.51,.93-.71,.93-1.51Z"/><path class="e" d="M78.98,87.98v-3.22l-.68,.71-.43-.44,1.2-1.21h.64v4.17h-.73Z"/><path class="e" d="M82.07,87.98v-3.22l-.68,.71-.43-.44,1.2-1.21h.64v4.17h-.73Z"/><path class="e" d="M86.54,85.9c0-1.05,.5-2.15,1.67-2.15s1.67,1.1,1.67,2.15-.5,2.16-1.67,2.16-1.67-1.11-1.67-2.16Zm2.6,0c0-.79-.24-1.5-.93-1.5s-.93,.71-.93,1.5,.24,1.51,.93,1.51,.93-.71,.93-1.51Z"/><path class="e" d="M92.05,87.98v-3.22l-.68,.71-.43-.44,1.2-1.21h.64v4.17h-.73Z"/></g><g><path class="e" d="M45.76,119.76v-3.22l-.68,.71-.43-.44,1.2-1.21h.64v4.17h-.73Z"/><path class="e" d="M48.85,119.76v-3.22l-.68,.71-.43-.44,1.2-1.21h.64v4.17h-.73Z"/><path class="e" d="M53.32,117.67c0-1.05,.5-2.15,1.67-2.15s1.67,1.1,1.67,2.15-.5,2.16-1.67,2.16-1.67-1.11-1.67-2.16Zm2.6,0c0-.79-.24-1.5-.93-1.5s-.93,.71-.93,1.5,.24,1.51,.93,1.51,.93-.71,.93-1.51Z"/><path class="e" d="M58.83,119.76v-3.22l-.68,.71-.43-.44,1.2-1.21h.64v4.17h-.73Z"/><path class="e" d="M61.92,119.76v-3.22l-.68,.71-.43-.44,1.2-1.21h.64v4.17h-.73Z"/><path class="e" d="M64.07,117.67c0-1.05,.5-2.15,1.67-2.15s1.67,1.1,1.67,2.15-.5,2.16-1.67,2.16-1.67-1.11-1.67-2.16Zm2.6,0c0-.79-.24-1.5-.93-1.5s-.93,.71-.93,1.5,.24,1.51,.93,1.51,.93-.71,.93-1.51Z"/></g><g><path class="e" d="M51.18,54.08c0-1.05,.5-2.15,1.67-2.15s1.67,1.1,1.67,2.15-.5,2.16-1.67,2.16-1.67-1.11-1.67-2.16Zm2.6,0c0-.79-.24-1.5-.93-1.5s-.93,.71-.93,1.5,.24,1.51,.93,1.51,.93-.71,.93-1.51Z"/><path class="e" d="M56.69,56.17v-3.22l-.68,.71-.43-.44,1.2-1.21h.64v4.17h-.73Z"/><path class="e" d="M59.78,56.17v-3.22l-.68,.71-.43-.44,1.2-1.21h.64v4.17h-.73Z"/><path class="e" d="M61.92,54.08c0-1.05,.5-2.15,1.67-2.15s1.67,1.1,1.67,2.15-.5,2.16-1.67,2.16-1.67-1.11-1.67-2.16Zm2.6,0c0-.79-.24-1.5-.93-1.5s-.93,.71-.93,1.5,.24,1.51,.93,1.51,.93-.71,.93-1.51Z"/><path class="e" d="M67.44,56.17v-3.22l-.68,.71-.43-.44,1.2-1.21h.64v4.17h-.73Z"/><path class="e" d="M69.58,54.08c0-1.05,.5-2.15,1.67-2.15s1.67,1.1,1.67,2.15-.5,2.16-1.67,2.16-1.67-1.11-1.67-2.16Zm2.6,0c0-.79-.24-1.5-.93-1.5s-.93,.71-.93,1.5,.24,1.51,.93,1.51,.93-.71,.93-1.51Z"/><path class="e" d="M74.15,54.08c0-1.05,.5-2.15,1.67-2.15s1.67,1.1,1.67,2.15-.5,2.16-1.67,2.16-1.67-1.11-1.67-2.16Zm2.6,0c0-.79-.24-1.5-.93-1.5s-.93,.71-.93,1.5,.24,1.51,.93,1.51,.93-.71,.93-1.51Z"/><path class="e" d="M79.66,56.17v-3.22l-.68,.71-.43-.44,1.2-1.21h.64v4.17h-.73Z"/></g><g><path class="e" d="M41.66,94.33v-3.22l-.68,.71-.43-.44,1.2-1.21h.64v4.17h-.73Z"/><path class="e" d="M43.81,92.24c0-1.05,.5-2.15,1.67-2.15s1.67,1.1,1.67,2.15-.5,2.16-1.67,2.16-1.67-1.11-1.67-2.16Zm2.6,0c0-.79-.24-1.5-.93-1.5s-.93,.71-.93,1.5,.24,1.51,.93,1.51,.93-.71,.93-1.51Z"/><path class="e" d="M49.32,94.33v-3.22l-.68,.71-.43-.44,1.2-1.21h.64v4.17h-.73Z"/><path class="e" d="M51.47,92.24c0-1.05,.5-2.15,1.67-2.15s1.67,1.1,1.67,2.15-.5,2.16-1.67,2.16-1.67-1.11-1.67-2.16Zm2.6,0c0-.79-.24-1.5-.93-1.5s-.93,.71-.93,1.5,.24,1.51,.93,1.51,.93-.71,.93-1.51Z"/><path class="e" d="M56.04,92.24c0-1.05,.5-2.15,1.67-2.15s1.67,1.1,1.67,2.15-.5,2.16-1.67,2.16-1.67-1.11-1.67-2.16Zm2.6,0c0-.79-.24-1.5-.93-1.5s-.93,.71-.93,1.5,.24,1.51,.93,1.51,.93-.71,.93-1.51Z"/><path class="e" d="M61.55,94.33v-3.22l-.68,.71-.43-.44,1.2-1.21h.64v4.17h-.73Z"/><path class="e" d="M66.01,92.24c0-1.05,.5-2.15,1.67-2.15s1.67,1.1,1.67,2.15-.5,2.16-1.67,2.16-1.67-1.11-1.67-2.16Zm2.6,0c0-.79-.24-1.5-.93-1.5s-.93,.71-.93,1.5,.24,1.51,.93,1.51,.93-.71,.93-1.51Z"/><path class="e" d="M71.53,94.33v-3.22l-.68,.71-.43-.44,1.2-1.21h.64v4.17h-.73Z"/><path class="e" d="M74.62,94.33v-3.22l-.68,.71-.43-.44,1.2-1.21h.64v4.17h-.73Z"/><path class="e" d="M77.71,94.33v-3.22l-.68,.71-.43-.44,1.2-1.21h.64v4.17h-.73Z"/><path class="e" d="M79.85,92.24c0-1.05,.5-2.15,1.67-2.15s1.67,1.1,1.67,2.15-.5,2.16-1.67,2.16-1.67-1.11-1.67-2.16Zm2.6,0c0-.79-.24-1.5-.93-1.5s-.93,.71-.93,1.5,.24,1.51,.93,1.51,.93-.71,.93-1.51Z"/><path class="e" d="M85.37,94.33v-3.22l-.68,.71-.43-.44,1.2-1.21h.64v4.17h-.73Z"/><path class="e" d="M87.51,92.24c0-1.05,.5-2.15,1.67-2.15s1.67,1.1,1.67,2.15-.5,2.16-1.67,2.16-1.67-1.11-1.67-2.16Zm2.6,0c0-.79-.24-1.5-.93-1.5s-.93,.71-.93,1.5,.24,1.51,.93,1.51,.93-.71,.93-1.51Z"/></g><g><path class="e" d="M45.15,98.6c0-1.05,.5-2.15,1.67-2.15s1.67,1.1,1.67,2.15-.5,2.16-1.67,2.16-1.67-1.11-1.67-2.16Zm2.6,0c0-.79-.24-1.5-.93-1.5s-.93,.71-.93,1.5,.24,1.51,.93,1.51,.93-.71,.93-1.51Z"/><path class="e" d="M50.67,100.69v-3.22l-.68,.71-.43-.44,1.2-1.21h.64v4.17h-.73Z"/><path class="e" d="M52.81,98.6c0-1.05,.5-2.15,1.67-2.15s1.67,1.1,1.67,2.15-.5,2.16-1.67,2.16-1.67-1.11-1.67-2.16Zm2.6,0c0-.79-.24-1.5-.93-1.5s-.93,.71-.93,1.5,.24,1.51,.93,1.51,.93-.71,.93-1.51Z"/><path class="e" d="M58.33,100.69v-3.22l-.68,.71-.43-.44,1.2-1.21h.64v4.17h-.73Z"/><path class="e" d="M60.47,98.6c0-1.05,.5-2.15,1.67-2.15s1.67,1.1,1.67,2.15-.5,2.16-1.67,2.16-1.67-1.11-1.67-2.16Zm2.6,0c0-.79-.24-1.5-.93-1.5s-.93,.71-.93,1.5,.24,1.51,.93,1.51,.93-.71,.93-1.51Z"/><path class="e" d="M65.98,100.69v-3.22l-.68,.71-.43-.44,1.2-1.21h.64v4.17h-.73Z"/><path class="e" d="M69.07,100.69v-3.22l-.68,.71-.43-.44,1.2-1.21h.64v4.17h-.73Z"/><path class="e" d="M71.22,98.6c0-1.05,.5-2.15,1.67-2.15s1.67,1.1,1.67,2.15-.5,2.16-1.67,2.16-1.67-1.11-1.67-2.16Zm2.6,0c0-.79-.24-1.5-.93-1.5s-.93,.71-.93,1.5,.24,1.51,.93,1.51,.93-.71,.93-1.51Z"/><path class="e" d="M78.11,98.6c0-1.05,.5-2.15,1.67-2.15s1.67,1.1,1.67,2.15-.5,2.16-1.67,2.16-1.67-1.11-1.67-2.16Zm2.6,0c0-.79-.24-1.5-.93-1.5s-.93,.71-.93,1.5,.24,1.51,.93,1.51,.93-.71,.93-1.51Z"/><path class="e" d="M83.62,100.69v-3.22l-.68,.71-.43-.44,1.2-1.21h.64v4.17h-.73Z"/><path class="e" d="M86.71,100.69v-3.22l-.68,.71-.43-.44,1.2-1.21h.64v4.17h-.73Z"/><path class="e" d="M40.59,98.6c0-1.05,.5-2.15,1.67-2.15s1.67,1.1,1.67,2.15-.5,2.16-1.67,2.16-1.67-1.11-1.67-2.16Zm2.6,0c0-.79-.24-1.5-.93-1.5s-.93,.71-.93,1.5,.24,1.51,.93,1.51,.93-.71,.93-1.51Z"/></g><g><path class="e" d="M53.23,60.4c0-1.05,.5-2.15,1.67-2.15s1.67,1.1,1.67,2.15-.5,2.16-1.67,2.16-1.67-1.11-1.67-2.16Zm2.6,0c0-.79-.24-1.5-.93-1.5s-.93,.71-.93,1.5,.24,1.51,.93,1.51,.93-.71,.93-1.51Z"/><path class="e" d="M58.74,62.49v-3.22l-.68,.71-.43-.44,1.2-1.21h.64v4.17h-.73Z"/><path class="e" d="M61.83,62.49v-3.22l-.68,.71-.43-.44,1.2-1.21h.64v4.17h-.73Z"/><path class="e" d="M64.92,62.49v-3.22l-.68,.71-.43-.44,1.2-1.21h.64v4.17h-.73Z"/><path class="e" d="M67.07,60.4c0-1.05,.5-2.15,1.67-2.15s1.67,1.1,1.67,2.15-.5,2.16-1.67,2.16-1.67-1.11-1.67-2.16Zm2.6,0c0-.79-.24-1.5-.93-1.5s-.93,.71-.93,1.5,.24,1.51,.93,1.51,.93-.71,.93-1.51Z"/><path class="e" d="M72.58,62.49v-3.22l-.68,.71-.43-.44,1.2-1.21h.64v4.17h-.73Z"/><path class="e" d="M74.73,60.4c0-1.05,.5-2.15,1.67-2.15s1.67,1.1,1.67,2.15-.5,2.16-1.67,2.16-1.67-1.11-1.67-2.16Zm2.6,0c0-.79-.24-1.5-.93-1.5s-.93,.71-.93,1.5,.24,1.51,.93,1.51,.93-.71,.93-1.51Z"/><path class="e" d="M79.3,60.4c0-1.05,.5-2.15,1.67-2.15s1.67,1.1,1.67,2.15-.5,2.16-1.67,2.16-1.67-1.11-1.67-2.16Zm2.6,0c0-.79-.24-1.5-.93-1.5s-.93,.71-.93,1.5,.24,1.51,.93,1.51,.93-.71,.93-1.51Z"/></g></g></g></g></g></svg>