<svg xmlns="http://www.w3.org/2000/svg" id="Layer_2" data-name="Layer 2" viewBox="0 0 719.41 299.48"><defs><style>      .cls-1 {        fill: #42c642;      }    </style></defs><g id="Layer_1-2" data-name="Layer 1"><g><g><path class="cls-1" d="m152.85,9.55c0,33.91-25.26,61.94-57.97,66.27-2.12-15.94-9.13-30.33-19.49-41.58C86.81,13.82,108.66,0,133.74,0h9.55c5.28,0,9.55,4.27,9.55,9.55ZM0,28.66c0-5.28,4.27-9.55,9.55-9.55h9.55c36.93,0,66.87,29.94,66.87,66.87v57.32c0,5.28-4.27,9.55-9.55,9.55s-9.55-4.27-9.55-9.55v-47.76C29.94,95.53,0,65.59,0,28.66Z"></path><path class="cls-1" d="m19.11,165.74c-10.54,0-19.11,8.57-19.11,19.11v19.11c0,10.54,8.57,19.11,19.11,19.11h114.63c10.54,0,19.11-8.57,19.11-19.11v-19.11c0-10.54-8.57-19.11-19.11-19.11H19.11Zm83.59,21.49c3.96,0,7.16,3.21,7.16,7.16s-3.21,7.16-7.16,7.16-7.16-3.21-7.16-7.16,3.21-7.16,7.16-7.16Zm14.33,7.16c0-3.96,3.21-7.16,7.16-7.16s7.16,3.21,7.16,7.16-3.21,7.16-7.16,7.16-7.16-3.21-7.16-7.16Zm-97.92,47.76c-10.54,0-19.11,8.57-19.11,19.11v19.11c0,10.54,8.57,19.11,19.11,19.11h114.63c10.54,0,19.11-8.57,19.11-19.11v-19.11c0-10.54-8.57-19.11-19.11-19.11H19.11Zm83.59,21.49c3.96,0,7.16,3.21,7.16,7.16s-3.21,7.16-7.16,7.16-7.16-3.21-7.16-7.16,3.21-7.16,7.16-7.16Zm16.72,7.16c0-3.96,3.21-7.16,7.16-7.16s7.16,3.21,7.16,7.16-3.21,7.16-7.16,7.16-7.16-3.21-7.16-7.16Z"></path></g><g><path class="cls-1" d="m241.22,122.55c-2.96-6.24-5.88-12.72-8.76-19.44-2.88-6.71-5.61-13.36-8.2-19.93-2.59-6.57-4.97-12.86-7.14-18.87-2.17-6.01-4.05-11.37-5.63-16.09h18.45c1.39,4.3,2.94,8.94,4.64,13.9,1.7,4.96,3.44,9.91,5.21,14.84,1.77,4.93,3.46,9.65,5.08,14.17s3.17,8.41,4.65,11.7c1.4-3.26,2.92-7.15,4.58-11.67,1.66-4.51,3.37-9.24,5.14-14.16,1.77-4.93,3.5-9.87,5.2-14.84,1.7-4.96,3.25-9.61,4.65-13.93h17.82c-1.67,4.74-3.58,10.11-5.75,16.11-2.17,6-4.54,12.29-7.11,18.87-2.57,6.58-5.29,13.23-8.15,19.95-2.86,6.72-5.76,13.19-8.71,19.41h-15.96Z"></path><path class="cls-1" d="m296.45,48.21h16.73v74.34h-16.73V48.21Z"></path><path class="cls-1" d="m375.18,48.21h16.73v74.34h-16.73v-31.54h-28.11v31.54h-16.73V48.21h16.73v28.43h28.11v-28.43Z"></path><path class="cls-1" d="m430.86,47.35c11.16,0,19.7,1.98,25.64,5.95,5.94,3.97,8.9,10.14,8.9,18.5,0,5.22-1.2,9.46-3.59,12.71-2.4,3.25-5.85,5.81-10.35,7.67,1.5,1.86,3.07,3.99,4.72,6.38,1.64,2.4,3.27,4.9,4.88,7.51,1.61,2.61,3.16,5.33,4.67,8.15,1.5,2.83,2.9,5.6,4.18,8.31h-18.71c-1.36-2.43-2.75-4.9-4.15-7.4-1.4-2.5-2.83-4.93-4.31-7.29-1.47-2.36-2.93-4.59-4.36-6.7-1.44-2.11-2.87-4.02-4.31-5.74h-8.26v27.14h-16.73V49.28c3.65-.71,7.42-1.21,11.32-1.5,3.9-.29,7.38-.43,10.46-.43Zm.97,14.27c-1.22,0-2.31.04-3.27.11-.97.07-1.88.14-2.74.21v20.17h4.72c6.29,0,10.8-.79,13.52-2.36,2.72-1.57,4.08-4.25,4.08-8.05s-1.38-6.24-4.13-7.78c-2.75-1.54-6.81-2.31-12.18-2.31Z"></path><path class="cls-1" d="m480.63,122.55V48.21h50.2v14.05h-33.47v14.59h29.71v13.73h-29.71v17.91h35.94v14.05h-52.67Z"></path><path class="cls-1" d="m595.51,122.55c-.83-2.58-1.72-5.24-2.67-7.96-.95-2.72-1.9-5.43-2.84-8.13h-29.03c-.94,2.71-1.88,5.43-2.82,8.15-.94,2.73-1.82,5.37-2.63,7.94h-17.38c2.8-8.01,5.45-15.41,7.96-22.21,2.51-6.79,4.97-13.19,7.37-19.2,2.4-6.01,4.77-11.71,7.1-17.11,2.33-5.4,4.75-10.67,7.26-15.82h15.86c2.44,5.15,4.85,10.42,7.22,15.82,2.37,5.4,4.76,11.1,7.17,17.11,2.41,6.01,4.87,12.41,7.38,19.2,2.51,6.79,5.17,14.2,7.98,22.21h-17.92Zm-32.39-81.74c-2.22,0-4.15-.73-5.79-2.2-1.65-1.46-2.47-3.45-2.47-5.95s.82-4.49,2.47-5.95c1.64-1.46,3.58-2.2,5.79-2.2s4.15.73,5.79,2.2c1.64,1.47,2.47,3.45,2.47,5.95s-.82,4.49-2.47,5.95c-1.65,1.47-3.58,2.2-5.79,2.2Zm12.28,24.24c-.37,1.08-.92,2.55-1.64,4.41-.72,1.86-1.54,4.01-2.46,6.44-.92,2.44-1.95,5.12-3.08,8.05-1.13,2.93-2.29,6-3.46,9.21h21.26c-1.14-3.22-2.24-6.3-3.31-9.24s-2.08-5.62-3.04-8.06c-.96-2.44-1.8-4.58-2.53-6.44-.72-1.86-1.31-3.31-1.75-4.37Zm11.64-24.24c-2.22,0-4.15-.73-5.79-2.2-1.65-1.46-2.47-3.45-2.47-5.95s.82-4.49,2.47-5.95c1.64-1.46,3.58-2.2,5.79-2.2s4.15.73,5.79,2.2c1.64,1.47,2.47,3.45,2.47,5.95s-.82,4.49-2.47,5.95c-1.65,1.47-3.58,2.2-5.79,2.2Z"></path><path class="cls-1" d="m669.32,48.21v14.27h-22.42v60.07h-16.73v-60.07h-22.42v-14.27h61.57Z"></path><path class="cls-1" d="m239.27,238.51c2.36,0,4.31-.2,5.85-.59,1.54-.39,2.77-.93,3.7-1.61.93-.68,1.57-1.48,1.93-2.41.36-.93.54-1.97.54-3.11,0-2.43-1.15-4.45-3.43-6.06-2.29-1.61-6.22-3.34-11.8-5.2-2.43-.86-4.86-1.84-7.29-2.95-2.43-1.11-4.61-2.5-6.54-4.18-1.93-1.68-3.5-3.72-4.72-6.11-1.22-2.4-1.82-5.31-1.82-8.74s.64-6.52,1.93-9.28c1.29-2.75,3.11-5.1,5.47-7.03,2.36-1.93,5.22-3.41,8.58-4.45,3.36-1.04,7.15-1.56,11.37-1.56,5,0,9.33.54,12.98,1.61,3.65,1.07,6.65,2.25,9.01,3.54l-4.83,13.19c-2.08-1.07-4.38-2.02-6.92-2.84-2.54-.82-5.6-1.23-9.17-1.23-4.01,0-6.88.56-8.64,1.66-1.75,1.11-2.63,2.81-2.63,5.1,0,1.36.32,2.5.97,3.43.64.93,1.56,1.77,2.74,2.52s2.54,1.43,4.08,2.04c1.54.61,3.23,1.23,5.1,1.88,3.86,1.43,7.22,2.84,10.08,4.24,2.86,1.39,5.24,3.02,7.13,4.88,1.89,1.86,3.31,4.04,4.24,6.54.93,2.5,1.39,5.54,1.39,9.12,0,6.94-2.43,12.32-7.29,16.14-4.86,3.83-12.19,5.74-21.99,5.74-3.29,0-6.26-.2-8.9-.59-2.65-.39-4.99-.88-7.03-1.45-2.04-.57-3.79-1.18-5.26-1.82-1.47-.64-2.7-1.25-3.7-1.82l4.72-13.3c2.22,1.22,4.95,2.31,8.21,3.27,3.25.97,7.24,1.45,11.96,1.45Z"></path><path class="cls-1" d="m281.43,251.27v-74.34h50.2v14.05h-33.47v14.59h29.71v13.73h-29.71v17.91h35.94v14.05h-52.67Z"></path><path class="cls-1" d="m368.21,176.07c11.16,0,19.7,1.98,25.64,5.95,5.94,3.97,8.9,10.14,8.9,18.5,0,5.22-1.2,9.46-3.59,12.71-2.4,3.25-5.85,5.81-10.35,7.67,1.5,1.86,3.07,3.99,4.72,6.38,1.64,2.4,3.27,4.9,4.88,7.51,1.61,2.61,3.16,5.33,4.67,8.15,1.5,2.83,2.9,5.6,4.18,8.31h-18.71c-1.36-2.43-2.75-4.9-4.15-7.4-1.4-2.5-2.83-4.93-4.31-7.29-1.47-2.36-2.93-4.59-4.36-6.7-1.44-2.11-2.87-4.02-4.31-5.74h-8.26v27.14h-16.73v-73.27c3.65-.71,7.42-1.21,11.32-1.5,3.9-.29,7.38-.43,10.46-.43Zm.97,14.27c-1.22,0-2.31.04-3.27.11-.97.07-1.88.14-2.74.21v20.17h4.72c6.29,0,10.8-.79,13.52-2.36,2.72-1.57,4.08-4.25,4.08-8.05s-1.38-6.24-4.13-7.78c-2.75-1.54-6.81-2.31-12.18-2.31Z"></path><path class="cls-1" d="m438.6,251.27c-2.96-6.24-5.88-12.72-8.76-19.44-2.88-6.71-5.61-13.36-8.2-19.93-2.59-6.57-4.97-12.86-7.14-18.87-2.17-6.01-4.05-11.37-5.63-16.09h18.45c1.39,4.3,2.94,8.94,4.64,13.9,1.7,4.96,3.44,9.91,5.21,14.84,1.77,4.93,3.46,9.65,5.08,14.17s3.17,8.41,4.65,11.7c1.4-3.26,2.92-7.15,4.58-11.67,1.66-4.51,3.37-9.24,5.14-14.16,1.77-4.93,3.5-9.87,5.2-14.84,1.7-4.96,3.25-9.61,4.65-13.93h17.82c-1.67,4.74-3.58,10.11-5.75,16.11-2.17,6-4.54,12.29-7.11,18.87-2.57,6.58-5.29,13.23-8.15,19.95-2.86,6.72-5.76,13.19-8.71,19.41h-15.96Z"></path><path class="cls-1" d="m493.82,251.27v-74.34h50.2v14.05h-33.47v14.59h29.71v13.73h-29.71v17.91h35.94v14.05h-52.67Z"></path><path class="cls-1" d="m580.61,176.07c11.16,0,19.7,1.98,25.64,5.95,5.94,3.97,8.9,10.14,8.9,18.5,0,5.22-1.2,9.46-3.59,12.71-2.4,3.25-5.85,5.81-10.35,7.67,1.5,1.86,3.07,3.99,4.72,6.38,1.64,2.4,3.27,4.9,4.88,7.51,1.61,2.61,3.16,5.33,4.67,8.15,1.5,2.83,2.9,5.6,4.18,8.31h-18.71c-1.36-2.43-2.75-4.9-4.15-7.4-1.4-2.5-2.83-4.93-4.31-7.29-1.47-2.36-2.93-4.59-4.36-6.7-1.44-2.11-2.87-4.02-4.31-5.74h-8.26v27.14h-16.73v-73.27c3.65-.71,7.42-1.21,11.32-1.5,3.9-.29,7.38-.43,10.46-.43Zm.97,14.27c-1.22,0-2.31.04-3.27.11-.97.07-1.88.14-2.74.21v20.17h4.72c6.29,0,10.8-.79,13.52-2.36,2.72-1.57,4.08-4.25,4.08-8.05s-1.38-6.24-4.13-7.78c-2.75-1.54-6.81-2.31-12.18-2.31Z"></path><path class="cls-1" d="m630.38,176.93h16.73v74.34h-16.73v-74.34Z"></path><path class="cls-1" d="m719.41,176.93v14.27h-22.42v60.07h-16.73v-60.07h-22.42v-14.27h61.57Z"></path></g></g></g></svg>