<?xml version="1.0" encoding="UTF-8"?>
<svg id="Layer_2" data-name="Layer 2" xmlns="http://www.w3.org/2000/svg" xmlns:xlink="http://www.w3.org/1999/xlink" viewBox="0 0 84.67 95">
  <defs>
    <style>
      .cls-1 {
        fill: url(#linear-gradient);
      }

      .cls-2 {
        opacity: .1;
      }
    </style>
    <linearGradient id="linear-gradient" x1="26.67" y1="79.89" x2="91.45" y2="15.11" gradientUnits="userSpaceOnUse">
      <stop offset="0" stop-color="#2939cc"/>
      <stop offset="1" stop-color="#2170d8"/>
    </linearGradient>
  </defs>
  <g id="Layer_1-2" data-name="Layer 1">
    <g id="Logo">
      <g id="Icon">
        <path id="Triangle" class="cls-1" d="m84.67,14.39v66.22c0,11.06-11.7,17.97-21.07,12.45L7.38,59.95c-9.39-5.53-9.39-19.37,0-24.9L63.6,1.94c9.37-5.52,21.07,1.4,21.07,12.45Z"/>
        <g id="Waves">
          <path id="_3" data-name="3" class="cls-2" d="m81.54,27.82c-9.28-5.45-12.86.93-22.14-4.52-6.93-4.08-6.68-8.67-9.99-13.01l-20.62,12.15-21.41,12.61c-1.89,1.11-3.39,2.57-4.52,4.22C-1.62,45.82-.11,55.54,7.38,59.95l56.22,33.11c8.21,4.83,18.2.13,20.56-8.54.33-1.23.52-2.54.52-3.91V30.1c-.85-.77-1.87-1.53-3.13-2.27Z"/>
          <path id="_2" data-name="2" class="cls-2" d="m71.13,46.34c-9.28-5.45-12.86.93-22.14-4.52-9.28-5.45-5.69-11.83-14.96-17.28-1.96-1.15-3.67-1.77-5.23-2.09l-21.41,12.61c-1.89,1.11-3.39,2.57-4.52,4.22C-1.62,45.82-.11,55.54,7.38,59.95l56.22,33.11c8.21,4.83,18.2.13,20.56-8.54.33-1.23.52-2.54.52-3.91v-17.9c-7.49-5.24-4.78-11.22-13.54-16.37Z"/>
          <path id="_1" data-name="1" class="cls-2" d="m60.37,64.85c-9.28-5.45-12.86.93-22.14-4.52-9.28-5.45-5.69-11.83-14.96-17.28-8.8-5.17-12.48.3-20.75-3.78-4.48,6.55-2.98,16.27,4.52,20.69l56.22,33.11c8.21,4.83,18.2.13,20.56-8.54-2.43.02-5.07-.39-8.47-2.39-9.28-5.45-5.69-11.83-14.96-17.28Z"/>
        </g>
      </g>
    </g>
  </g>
</svg>