<?xml version="1.0" encoding="UTF-8"?>
<svg id="Layer_2" data-name="Layer 2" xmlns="http://www.w3.org/2000/svg" viewBox="0 0 3840 2160">
  <defs>
    <style>
      .cls-1 {
        isolation: isolate;
        opacity: .2;
      }

      .cls-1, .cls-2 {
        stroke-width: 0px;
      }

      .cls-2 {
        fill: #c1272d;
      }
    </style>
  </defs>
  <rect class="cls-2" width="3840" height="2159.99"/>
  <g id="Layer_1-2" data-name="Layer 1-2">
    <g id="Shades">
      <path class="cls-1" d="m1041.81,1918.97c-74.57-74.57-15.38-133.75-89.95-208.32-74.57-74.57-133.75-15.38-208.32-89.95s-15.38-133.75-89.95-208.32c-74.57-74.57-133.75-15.38-208.32-89.95s-15.38-133.75-89.95-208.32c-74.57-74.57-133.75-15.38-208.32-89.95-74.57-74.57-15.38-133.75-89.95-208.32-19.92-19.92-38.74-30.29-57.05-36.22v1380.38h1303.8c-16.16-50.16.91-96.5-53.67-151.08-74.57-74.57-133.75-15.38-208.32-89.95h0Z"/>
      <path class="cls-1" d="m2517.87,1977.64c-74.57-74.57-133.75-15.38-208.32-89.95s-15.38-133.75-89.95-208.32-133.75-15.38-208.32-89.95c-74.57-74.57-15.38-133.75-89.95-208.32-74.57-74.57-133.75-15.38-208.32-89.95-74.57-74.57-15.38-133.75-89.95-208.32-74.57-74.57-133.75-15.38-208.32-89.95s-15.38-133.75-89.95-208.32-133.75-15.38-208.32-89.95c-74.57-74.57-15.38-133.75-89.95-208.32-74.57-74.57-133.75-15.38-208.32-89.95s-15.38-133.75-89.95-208.32c-74.57-74.57-133.75-15.38-208.32-89.95-35.02-35.02-40.54-66.65-44.27-98.07H0v2160h2586.48c-41.05-62.88-2.9-116.64-68.62-182.36h.01Z"/>
      <path class="cls-1" d="m3726.69,1977.64c-74.57-74.57-133.75-15.38-208.32-89.95s-15.38-133.75-89.95-208.32-133.75-15.38-208.32-89.95-15.38-133.75-89.95-208.32c-74.57-74.57-133.75-15.38-208.32-89.95s-15.38-133.75-89.95-208.32c-74.57-74.57-133.75-15.38-208.32-89.95s-15.38-133.75-89.95-208.32-133.75-15.38-208.32-89.95-15.38-133.75-89.95-208.32-133.75-15.38-208.32-89.95-15.38-133.75-89.95-208.32c-74.57-74.57-133.75-15.38-208.32-89.95-35.02-35.02-40.54-66.65-44.27-98.08H0v2160h3795.3c-41.05-62.88-2.9-116.64-68.62-182.36h.01Z"/>
      <path class="cls-1" d="m3792.37,987.48c-74.57-74.57-15.38-133.75-89.95-208.32s-133.75-15.38-208.32-89.95-15.38-133.75-89.95-208.32-133.75-15.38-208.32-89.95-15.38-133.75-89.95-208.32c-74.57-74.57-133.75-15.38-208.32-89.95-33.02-33.02-39.81-63.02-43.6-92.67H0v2160h3840V1020.25c-15.34-6.3-31.11-16.25-47.63-32.77Z"/>
    </g>
  </g>
</svg>